# File created by Blade
# Date/Time:  Wed Apr 08 17:12:22 2015
#---------------------------------------------------------
:version 1.10
:name HOM
:units
  mass 1.0
  length 1.000000
  angle deg
:documentation
     Acclaim Skeleton File
:root
   axis xyz
   order TX TY TZ RX RY RZ
   position 0.000000 0.000000 0.000000
   orientation 0 0 0
:bonedata
   begin
      id 1
      name Spine_dum
      direction 0.000000 1.000000 0.000000
      length 5.893853
      axis 0.0 0.0 0.0 xyz
   end
   begin
      id 2
      name LeftUpLeg_dum
      direction 1.000000 0.000000 0.000000
      length 3.697939
      axis 0.0 0.0 0.0 xyz
   end
   begin
      id 3
      name RightUpLeg_dum
      direction -1.000000 0.000000 0.000000
      length 3.697939
      axis 0.0 0.0 0.0 xyz
   end
   begin
      id 4
      name Spine
      direction 0.000000 1.000000 0.000000
      length 0.000000
      axis 0.0 0.0 0.0 xyz
      dof rx ry rz
   end
   begin
      id 5
      name Spine_dum1
      direction 0.000000 1.000000 0.000000
      length 16.447146
      axis 0.0 0.0 0.0 xyz
   end
   begin
      id 6
      name Spine_dum2
      direction 0.000000 1.000000 0.000000
      length 10.900383
      axis 0.0 0.0 0.0 xyz
   end
   begin
      id 7
      name Spine_dum3
      direction 0.000000 1.000000 0.000000
      length 10.900383
      axis 0.0 0.0 0.0 xyz
   end
   begin
      id 8
      name Head
      direction 0.000000 1.000000 0.000000
      length 4.527550
      axis 0.0 0.0 0.0 xyz
      dof rx ry rz
   end
   begin
      id 9
      name LeftShoulder
      direction 1.000000 0.000000 0.000000
      length 8.219464
      axis 0.0 0.0 -90.0 xyz
      dof rx ry rz
   end
   begin
      id 10
      name LeftArm
      direction 1.000000 0.000000 0.000000
      length 11.094937
      axis 0.0 0.0 -90.0 xyz
      dof rx ry rz
   end
   begin
      id 11
      name LeftForeArm
      direction 1.000000 0.000000 0.000000
      length 9.103875
      axis 0.0 0.0 -90.0 xyz
      dof ry rz rx
   end
   begin
      id 12
      name LeftHand
      direction 0.000000 0.000000 0.000000
      length 0.000000
      axis 0.0 0.0 -90.0 xyz
      dof rx ry rz
   end
   begin
      id 13
      name LeftHand_dum1
      direction 0.000000 0.000000 0.000000
      length 0.000000
      axis 0.0 0.0 -90.0 xyz
   end
   begin
      id 14
      name LeftHand_dum2
      direction 1.000000 0.000000 0.000000
      length 3.937000
      axis 0.0 0.0 -90.0 xyz
   end
   begin
      id 15
      name LeftHandThumb1
      direction 0.000000 0.000000 1.000000
      length 3.937000
      axis 0.0 0.0 -90.0 xyz
      dof rx rz ry
   end
   begin
      id 16
      name RightShoulder
      direction -1.000000 0.000000 0.000000
      length 8.219464
      axis 0.0 0.0 90.0 xyz
      dof rx ry rz
   end
   begin
      id 17
      name RightArm
      direction -1.000000 0.000000 0.000000
      length 11.094937
      axis 0.0 0.0 90.0 xyz
      dof rx ry rz
   end
   begin
      id 18
      name RightForeArm
      direction -1.000000 0.000000 0.000000
      length 9.103875
      axis 0.0 0.0 90.0 xyz
      dof ry rz rx
   end
   begin
      id 19
      name RightHand
      direction 0.000000 0.000000 0.000000
      length 0.000000
      axis 0.0 0.0 90.0 xyz
      dof rx ry rz
   end
   begin
      id 20
      name RightHand_dum1
      direction 0.000000 0.000000 0.000000
      length 0.000000
      axis 0.0 0.0 90.0 xyz
   end
   begin
      id 21
      name RightHand_dum2
      direction -1.000000 0.000000 0.000000
      length 3.937000
      axis 0.0 0.0 90.0 xyz
   end
   begin
      id 22
      name RightHandThumb1
      direction 0.000000 0.000000 1.000000
      length 3.937000
      axis 0.0 0.0 90.0 xyz
      dof rx rz ry
   end
   begin
      id 23
      name LeftUpLeg
      direction 0.000000 -1.000000 0.000000
      length 16.181467
      axis 0.0 0.0 0.0 xyz
      dof rx ry rz
   end
   begin
      id 24
      name LeftLeg
      direction 0.000000 -1.000000 0.000000
      length 16.501392
      axis 0.0 0.0 0.0 xyz
      dof rx ry rz
   end
   begin
      id 25
      name LeftFoot
      direction 0.000000 -0.258819 0.965926
      length 6.408245
      axis 15.0 0.0 0.0 xyz
      dof rx ry rz
   end
   begin
      id 26
      name LeftToeBase
      direction 0.000000 0.000000 1.000000
      length 2.952750
      axis 0.0 0.0 0.0 xyz
      dof rx ry rz
   end
   begin
      id 27
      name RightUpLeg
      direction 0.000000 -1.000000 0.000000
      length 16.181467
      axis 0.0 0.0 0.0 xyz
      dof rx ry rz
   end
   begin
      id 28
      name RightLeg
      direction 0.000000 -1.000000 0.000000
      length 16.501392
      axis 0.0 0.0 0.0 xyz
      dof rx ry rz
   end
   begin
      id 29
      name RightFoot
      direction 0.000000 -0.258819 0.965926
      length 6.408245
      axis 15.0 0.0 0.0 xyz
      dof rx ry rz
   end
   begin
      id 30
      name RightToeBase
      direction 0.000000 0.000000 1.000000
      length 2.952750
      axis 0.0 0.0 0.0 xyz
      dof rx ry rz
   end
:hierarchy
   begin
      root Spine_dum LeftUpLeg_dum RightUpLeg_dum
      Spine_dum Spine
      LeftUpLeg_dum LeftUpLeg
      RightUpLeg_dum RightUpLeg
      Spine Spine_dum1 Spine_dum2 Spine_dum3
      Spine_dum1 Head
      Spine_dum2 LeftShoulder
      Spine_dum3 RightShoulder
      LeftShoulder LeftArm
      LeftArm LeftForeArm
      LeftForeArm LeftHand
      LeftHand LeftHand_dum1 LeftHand_dum2
      LeftHand_dum1 LeftHandThumb1
      RightShoulder RightArm
      RightArm RightForeArm
      RightForeArm RightHand
      RightHand RightHand_dum1 RightHand_dum2
      RightHand_dum1 RightHandThumb1
      LeftUpLeg LeftLeg
      LeftLeg LeftFoot
      LeftFoot LeftToeBase
      RightUpLeg RightLeg
      RightLeg RightFoot
      RightFoot RightToeBase
   end

# File created by Blade
# Date/Time:  Wed Apr 08 17:12:12 2015
# Frame Rate: 120.000 fps
#------------------------------------------------------
:FULLY-SPECIFIED
:DEGREES
329
root 3.080489 38.162364 4.055112 40.073500 -17.562403 -25.123351
Spine -29.424115 2.339996 5.000016
Head 12.053566 21.520832 15.476381
LeftShoulder -7.512817 26.053925 11.581225
LeftArm 24.892607 24.424860 -72.528762
LeftForeArm 21.301002 -0.000000 27.112713
LeftHand -16.329301 -0.000000 -3.532888
LeftHandThumb1 -26.253704 0.000000 33.147579
RightShoulder -33.809988 -58.598863 19.096104
RightArm 51.522406 -13.962848 43.963235
RightForeArm 8.530170 -0.000000 4.497085
RightHand -5.907303 0.000000 17.053047
RightHandThumb1 -24.326973 -0.000000 -32.862282
LeftUpLeg -43.920882 24.291571 9.267233
LeftLeg 25.210908 -0.000000 -0.000000
LeftFoot -8.055593 -7.190312 -22.313169
LeftToeBase 16.760716 -0.000000 -0.000000
RightUpLeg -123.834555 -3.643066 26.742253
RightLeg 124.065909 -0.000000 -0.000000
RightFoot 10.926211 5.017326 25.684502
RightToeBase 2.969816 -0.000000 -0.000000
330
root 3.054305 38.172785 4.032187 40.190369 -17.518551 -25.255119
Spine -29.433940 2.295265 4.763694
Head 12.157963 21.459233 15.883657
LeftShoulder -7.540598 25.988499 11.536580
LeftArm 24.959150 24.189189 -72.311095
LeftForeArm 21.260877 -0.000000 26.792682
LeftHand -16.480978 -0.000000 -3.256762
LeftHandThumb1 -26.253704 0.000000 33.147579
RightShoulder -34.096970 -58.643895 19.363543
RightArm 51.355576 -13.545619 44.141793
RightForeArm 8.009304 -0.000000 4.226311
RightHand -6.100121 -0.000000 16.871736
RightHandThumb1 -24.326973 -0.000000 -32.862282
LeftUpLeg -43.860109 24.324632 9.425273
LeftLeg 24.947593 -0.000000 -0.000000
LeftFoot -8.128997 -7.093333 -22.465873
LeftToeBase 16.968617 -0.000000 -0.000000
RightUpLeg -123.750784 -3.680810 26.814723
RightLeg 123.981947 -0.000000 -0.000000
RightFoot 10.897343 4.847489 25.590707
RightToeBase 3.038135 -0.000000 -0.000000
331
root 3.025394 38.182599 4.007553 40.286458 -17.494319 -25.408538
Spine -29.411055 2.240622 4.526030
Head 12.273738 21.451758 16.340163
LeftShoulder -7.577870 25.964625 11.524393
LeftArm 25.019435 23.910027 -72.161702
LeftForeArm 21.242972 -0.000000 26.511652
LeftHand -16.652908 0.000000 -2.854457
LeftHandThumb1 -26.253704 0.000000 33.147579
RightShoulder -34.319926 -58.673538 19.582410
RightArm 51.204166 -13.173965 44.291144
RightForeArm 7.727228 -0.000000 3.978220
RightHand -6.287946 -0.000000 16.314025
RightHandThumb1 -24.326973 -0.000000 -32.862282
LeftUpLeg -43.808123 24.507082 9.537250
LeftLeg 24.712842 -0.000000 -0.000000
LeftFoot -8.130342 -7.150758 -22.503410
LeftToeBase 17.218023 -0.000000 -0.000000
RightUpLeg -123.605415 -3.714176 26.861830
RightLeg 123.866338 -0.000000 -0.000000
RightFoot 10.853375 4.733618 25.648520
RightToeBase 3.198212 -0.000000 -0.000000
332
root 2.996802 38.191739 3.982409 40.385432 -17.529676 -25.555979
Spine -29.384545 2.172692 4.260320
Head 12.362055 21.477560 16.787281
LeftShoulder -7.662195 25.924678 11.515275
LeftArm 24.988371 23.640125 -72.041637
LeftForeArm 21.177003 0.000000 26.349485
LeftHand -16.801009 -0.000000 -2.467883
LeftHandThumb1 -26.253704 0.000000 33.147579
RightShoulder -34.495463 -58.680783 19.739906
RightArm 51.125090 -12.887278 44.382608
RightForeArm 7.434541 0.000000 3.707425
RightHand -6.232196 -0.000000 15.929903
RightHandThumb1 -24.326973 -0.000000 -32.862282
LeftUpLeg -43.736053 24.705572 9.642420
LeftLeg 24.483085 -0.000000 -0.000000
LeftFoot -8.095496 -7.239309 -22.512240
LeftToeBase 17.350666 -0.000000 -0.000000
RightUpLeg -123.451815 -3.698600 26.864604
RightLeg 123.734171 -0.000000 -0.000000
RightFoot 10.800351 4.592854 25.588373
RightToeBase 3.267002 -0.000000 -0.000000
333
root 2.969355 38.199859 3.959271 40.477693 -17.555023 -25.683479
Spine -29.371394 2.078075 3.995187
Head 12.474418 21.486110 17.222419
LeftShoulder -7.748544 25.954157 11.542905
LeftArm 24.993453 23.363006 -71.964068
LeftForeArm 21.081789 -0.000000 26.224239
LeftHand -16.906116 -0.000000 -2.034551
LeftHandThumb1 -26.253704 0.000000 33.147579
RightShoulder -34.487583 -58.681582 19.737211
RightArm 50.918594 -12.605209 44.602908
RightForeArm 7.304718 -0.000000 3.546067
RightHand -6.314364 -0.000000 15.227544
RightHandThumb1 -24.326973 -0.000000 -32.862282
LeftUpLeg -43.658153 24.823690 9.789813
LeftLeg 24.283855 -0.000000 -0.000000
LeftFoot -8.054548 -7.309610 -22.487616
LeftToeBase 17.357393 -0.000000 -0.000000
RightUpLeg -123.308157 -3.724617 26.837870
RightLeg 123.587373 -0.000000 -0.000000
RightFoot 10.767823 4.523789 25.533280
RightToeBase 3.494901 -0.000000 -0.000000
334
root 2.941665 38.206520 3.934051 40.526616 -17.606314 -25.813380
Spine -29.295644 2.016569 3.704695
Head 12.560253 21.482077 17.606952
LeftShoulder -7.799333 25.937353 11.594028
LeftArm 24.938041 23.108900 -71.916588
LeftForeArm 20.953520 -0.000000 26.173673
LeftHand -17.004071 0.000000 -1.645994
LeftHandThumb1 -26.253704 0.000000 33.147579
RightShoulder -34.576299 -58.672657 19.796307
RightArm 50.833383 -12.418868 44.682133
RightForeArm 7.362182 -0.000000 3.418675
RightHand -6.250849 -0.000000 15.112292
RightHandThumb1 -24.326973 -0.000000 -32.862282
LeftUpLeg -43.506052 24.877483 10.007328
LeftLeg 24.095243 -0.000000 -0.000000
LeftFoot -8.027596 -7.336906 -22.476440
LeftToeBase 17.338179 -0.000000 -0.000000
RightUpLeg -123.123793 -3.748433 26.760722
RightLeg 123.428043 -0.000000 -0.000000
RightFoot 10.761266 4.525818 25.470274
RightToeBase 3.494472 -0.000000 -0.000000
335
root 2.911538 38.205583 3.914080 40.330064 -17.753620 -25.908301
Spine -28.920967 2.014852 3.288905
Head 12.537550 21.453657 17.985122
LeftShoulder -7.779874 25.849864 11.686022
LeftArm 24.843060 22.810276 -71.909521
LeftForeArm 20.909180 -0.000000 26.143900
LeftHand -17.095126 -0.000000 -1.529977
LeftHandThumb1 -26.253704 0.000000 33.147579
RightShoulder -34.580738 -58.582819 19.841195
RightArm 50.693273 -12.289259 44.773483
RightForeArm 7.464026 0.000000 3.354614
RightHand -6.224996 -0.000000 14.740303
RightHandThumb1 -24.326973 -0.000000 -32.862282
LeftUpLeg -43.028782 24.813649 10.349309
LeftLeg 23.917811 -0.000000 -0.000000
LeftFoot -8.104287 -7.318841 -22.455698
LeftToeBase 17.334302 -0.000000 -0.000000
RightUpLeg -122.761386 -3.821660 26.590087
RightLeg 123.313006 -0.000000 -0.000000
RightFoot 10.722478 4.527527 25.329644
RightToeBase 3.576948 -0.000000 -0.000000
